<?xml version="1.0" encoding="iso-8859-1"?>
<!-- Generator: Adobe Illustrator 18.1.1, SVG Export Plug-In . SVG Version: 6.00 Build 0)  -->
<svg version="1.1" id="Capa_1" xmlns="http://www.w3.org/2000/svg" xmlns:xlink="http://www.w3.org/1999/xlink" x="0px" y="0px"
	 viewBox="0 0 271.997 271.997" style="enable-background:new 0 0 271.997 271.997;" xml:space="preserve">
<g>
	<path style="fill:#030104;" d="M71.984,81.129c14.383,0,26.417-10.031,29.5-23.48c-2.804,1.481-5.997,2.328-9.386,2.328
		c-11.111,0-20.114-9.002-20.114-20.113c0-7.515,4.127-14.053,10.23-17.508c-3.197-1.149-6.641-1.776-10.23-1.776
		c-16.722,0-30.278,13.556-30.278,30.273C41.706,67.576,55.262,81.129,71.984,81.129z"/>
	<path style="fill:#030104;" d="M238.641,175.172l-61.674,24.71L69.613,154.779l-16.539-45.806
		c-1.57-3.67-12.204,0.161-10.426,5.734l12.25,33.892l-47.177-19.82c-5.854-2.143-10.085,9.352-6.255,11.471l92.591,41.736
		l-47.239,19.248c-5.788,2.523,0.307,17.867,9.38,13.551l56.705-24.304l41.187,18.567L91.646,234.07
		c-8.335,3.786-0.109,22.142,13.551,16.159l166.8-62.026L238.641,175.172z"/>
	<path style="fill:#030104;" d="M136.217,101.277c-15.713,22.937-10.89,48.348,14.495,76.225h7.607V167.06h11.68v10.442h11.322
		V167.06h11.68v10.442h5.943c24.335-24.466,34.719-49.546,15.356-75.954c10.183,3.431,18.114,11.874,25.021,22.542
		c-4.661-22.602-17.635-35.996-40.372-38.598v0.006l-0.006-0.006h-5.226l-1.159,0.032l-1.166-0.032h-10.52l-4.713,9.99l-4.727-9.99
		h-10.423l-1.165,0.032l-1.134-0.032h-8.001c-22.737,2.602-35.711,15.997-40.372,38.598
		C117.442,113.123,125.624,104.513,136.217,101.277z"/>
	<path style="fill:#030104;" d="M139.806,61.022c0,11.067,8.975,20.041,20.039,20.041c0.572,0,1.137-0.022,1.697-0.071h9.875
		l4.744,10.028l4.734-10.028h9.972c0.558,0.048,1.124,0.071,1.696,0.071c0.562,0,1.119-0.026,1.668-0.071h0.035v-0.003
		c10.268-0.865,18.336-9.475,18.336-19.967c0-6.959-3.545-13.084-8.932-16.68c1.85-3.757,4.596-6.978,7.998-9.797
		c-5.654,1.261-10.422,3.498-13.927,7.111c-1.651-0.44-3.391-0.674-5.179-0.674c-6.756,0-12.729,3.346-16.361,8.465
		c-3.631-5.119-9.601-8.465-16.356-8.465c-1.629,0-3.216,0.192-4.734,0.563c-3.493-3.547-8.22-5.75-13.815-7
		c3.321,2.753,6.015,5.884,7.861,9.523C143.538,47.619,139.806,53.885,139.806,61.022z M193.09,47.552
		c7.435,0,13.471,6.033,13.471,13.471c0,7.438-6.036,13.47-13.471,13.47c-7.438,0-13.47-6.032-13.47-13.47
		C179.62,53.585,185.651,47.552,193.09,47.552z M159.319,47.552c7.435,0,13.47,6.033,13.47,13.471c0,7.438-6.035,13.47-13.47,13.47
		c-7.438,0-13.471-6.032-13.471-13.47C145.849,53.585,151.882,47.552,159.319,47.552z"/>
	<rect x="159.62" y="169.062" style="fill:#030104;" width="9.04" height="13.707"/>
	<rect x="182.667" y="169.062" style="fill:#030104;" width="9.04" height="13.707"/>
	<circle style="fill:#030104;" cx="159.731" cy="61.023" r="4.782"/>
	<circle style="fill:#030104;" cx="192.679" cy="61.023" r="4.782"/>
</g>
<g>
</g>
<g>
</g>
<g>
</g>
<g>
</g>
<g>
</g>
<g>
</g>
<g>
</g>
<g>
</g>
<g>
</g>
<g>
</g>
<g>
</g>
<g>
</g>
<g>
</g>
<g>
</g>
<g>
</g>
</svg>
