<?xml version="1.0" encoding="UTF-8"?>
<svg width="319px" height="311px" viewBox="0 0 319 311" version="1.1" xmlns="http://www.w3.org/2000/svg" xmlns:xlink="http://www.w3.org/1999/xlink">
    <defs>
        <radialGradient cx="50%" cy="0%" fx="50%" fy="0%" r="100%" gradientTransform="translate(0.500000,0.000000),scale(0.522720,1.000000),rotate(90.000000),translate(-0.500000,-0.000000)" id="radialGradient-1">
            <stop stop-color="#FFFFFF" offset="0%"></stop>
            <stop stop-color="#000000" offset="100%"></stop>
        </radialGradient>
        <radialGradient cx="50%" cy="0%" fx="50%" fy="0%" r="100%" gradientTransform="translate(0.500000,0.000000),scale(0.699655,1.000000),rotate(90.000000),translate(-0.500000,-0.000000)" id="radialGradient-2">
            <stop stop-color="#3F3B41" offset="0%"></stop>
            <stop stop-color="#030104" offset="100%"></stop>
        </radialGradient>
    </defs>
    <g id="splash-screen" stroke="none" stroke-width="1" fill="none" fill-rule="evenodd">
        <g id="iPhone-12-Pro-Max-1" transform="translate(-45.000000, -229.000000)">
            <g id="Group" transform="translate(45.266667, 229.000000)">
                <g id="logo" transform="translate(31.733333, 123.000000)" fill-rule="nonzero">
                    <path d="M208.129327,122.294014 L154.34081,143.588268 L60.7128222,104.720008 L46.2884571,65.2459255 C44.9191934,62.083242 35.6448299,65.3846699 37.1954993,70.1872953 L47.8792451,99.3942899 L6.73417768,82.3140753 C1.6286554,80.4673094 -2.06137958,90.3733168 1.27892625,92.1994003 L82.0314738,128.166092 L40.8323336,144.753376 C35.7843727,146.927613 41.1000813,160.150561 49.0130303,156.431176 L98.4678716,135.4868 L134.388805,151.487221 L79.9287382,173.050345 C72.6594303,176.312994 79.8336747,192.131582 91.7471414,186.975632 L237.220513,133.523695 L208.129327,122.294014 Z" id="Path" fill="url(#radialGradient-1)"></path>
                    <path d="M101.383603,59.5530377 C87.6284148,79.2467993 91.8504775,101.064743 114.072551,125 L120.731732,125 L120.731732,116.034475 L130.956425,116.034475 L130.956425,125 L140.867724,125 L140.867724,116.034475 L151.092416,116.034475 L151.092416,125 L156.294929,125 C177.597831,103.993435 186.688002,82.4596892 169.737598,59.7857189 C178.651814,62.7315835 185.594626,69.980763 191.641026,79.1403326 C187.560778,59.7342028 176.203316,48.2340833 156.299306,46 L156.299306,46.0051516 L156.294053,46 L151.719204,46 L150.704613,46.0274753 L149.683895,46 L140.474668,46 L136.3489,54.5774372 L132.210876,46 L123.086563,46 L122.06672,46.0274753 L121.074014,46 L114.069925,46 C94.1659152,48.2340833 82.8084527,59.7350614 78.7282051,79.1403326 C84.9479346,69.7240409 92.1104718,62.3314748 101.383603,59.5530377 Z" id="Path" fill="url(#radialGradient-2)"></path>
                    <path d="M104.625641,22.9725188 C104.625641,32.5746968 112.416288,40.3609031 122.020268,40.3609031 C122.516786,40.3609031 123.007228,40.341815 123.49333,40.2993006 L132.065212,40.2993006 L136.183187,49 L140.292482,40.2993006 L148.948564,40.2993006 C149.43293,40.3409473 149.924239,40.3609031 150.420758,40.3609031 C150.908595,40.3609031 151.392093,40.3383444 151.868646,40.2993006 L151.899027,40.2993006 L151.899027,40.2966977 C160.812049,39.5461886 167.815385,32.0758035 167.815385,22.9725188 C167.815385,16.9346082 164.738188,11.6203099 160.062063,8.50027446 C161.667935,5.24054892 164.051569,2.44587871 167.004636,0 C162.096746,1.09409473 157.957937,3.03500664 154.915462,6.16979194 C153.48233,5.7880301 151.971943,5.58500221 150.41989,5.58500221 C144.55542,5.58500221 139.370625,8.48812749 136.217909,12.9295795 C133.06606,8.48812749 127.883869,5.58500221 122.020268,5.58500221 C120.606233,5.58500221 119.228656,5.7515892 117.910973,6.07348384 C114.878914,2.99596282 110.775695,1.08455069 105.919019,0 C108.801775,2.38861443 111.140271,5.10519699 112.742671,8.26254095 C107.865161,11.3435325 104.625641,16.7801682 104.625641,22.9725188 Z M150.878214,11.2854006 C157.332082,11.2854006 162.571563,16.5198761 162.571563,22.9733865 C162.571563,29.4268969 157.332082,34.6605046 150.878214,34.6605046 C144.421742,34.6605046 139.185733,29.4268969 139.185733,22.9733865 C139.185733,16.5198761 144.420874,11.2854006 150.878214,11.2854006 Z M129.487179,116 L129.487179,128 L121.2,128 L121.2,116 L129.487179,116 Z M150.205128,116 L150.205128,128 L141.917949,128 L141.917949,116 L150.205128,116 Z M121.56368,11.2854006 C128.017547,11.2854006 133.256161,16.5198761 133.256161,22.9733865 C133.256161,29.4268969 128.017547,34.6605046 121.56368,34.6605046 C115.107208,34.6605046 109.870331,29.4268969 109.870331,22.9733865 C109.871199,16.5198761 115.108076,11.2854006 121.56368,11.2854006 Z M150.205128,19 C152.49357,19 154.348718,20.790861 154.348718,23 C154.348718,25.209139 152.49357,27 150.205128,27 C147.916687,27 146.061538,25.209139 146.061538,23 C146.061538,20.790861 147.916687,19 150.205128,19 Z" id="Shape" fill="#030104"></path>
                </g>
                <g id="reception-bell-svgrepo-com" fill="#000000" fill-rule="nonzero">
                    <path d="M39.2510076,32.4017103 C39.2510076,33.2896211 38.5735901,34.0095162 37.7380706,34.0095162 C27.4555833,34.0095162 19.0901764,42.899276 19.0901764,53.8265278 C19.0901764,54.7144386 18.4127588,55.4343337 17.5772393,55.4343337 C16.7417199,55.4343337 16.0643023,54.7144386 16.0643023,53.8265278 C16.0643023,41.126268 25.787192,30.7939044 37.7380706,30.7939044 C38.5737792,30.7939044 39.2510076,31.5135985 39.2510076,32.4017103 Z M79.5749396,30.2607158 C75.1412777,20.7784795 67.6036364,13.4074934 58.3512701,9.50514749 C57.5749443,9.17755704 56.6951714,9.58091534 56.3869105,10.4063227 C56.0786496,11.23173 56.4583968,12.1662672 57.2349117,12.4938577 C65.7924617,16.10298 72.7638863,22.9208809 76.8650803,31.691462 C77.129277,32.2568068 77.6648567,32.5841963 78.2210501,32.5841963 C78.4472342,32.5841963 78.6770115,32.5299328 78.8931724,32.4157786 C79.641698,32.0210623 79.9467439,31.0559768 79.5749396,30.2607158 Z M68.5789134,31.9169568 C68.8690191,32.3894508 69.3533481,32.6460968 69.847322,32.6460968 C70.1308086,32.6460968 70.4176992,32.561486 70.6728183,32.3844264 C71.3725516,31.898869 71.5694226,30.9026323 71.1127047,30.159223 C67.9610678,25.0285134 63.5879233,20.8506298 58.4660642,18.0769637 C57.7216992,17.6738063 56.8105329,17.9885343 56.4311639,18.7795748 C56.051795,19.5708163 56.3479524,20.5389164 57.0923174,20.9420738 C61.7438422,23.4611037 65.7158692,27.2561285 68.5789134,31.9169568 Z M77.2941871,74.2384276 C77.2941871,77.415452 74.8621408,80 71.8727664,80 L6.15456489,80 C3.16519047,80 0.733333333,77.415452 0.733333333,74.2386285 C0.733333333,71.0616041 3.16519047,68.4770561 6.15456489,68.4770561 L22.7894965,68.4770561 L22.7894965,65.0355476 L7.74447257,65.0355476 C6.90895311,65.0355476 6.23153556,64.3156525 6.23153556,63.4277417 L6.23153556,55.1202086 C6.23153556,45.8514086 9.65096233,37.1129835 15.8600558,30.5147491 C21.7086921,24.2993735 29.3444852,20.7143683 37.5007286,20.31925 L37.5007286,11.5229439 L37.0595184,11.5229439 C34.070144,11.5229439 31.6380977,8.93839591 31.6380977,5.76157243 C31.6380977,2.58454798 34.070144,0 37.0595184,0 L40.9681912,0 C43.9575656,0 46.3896118,2.58454798 46.3896118,5.76137146 C46.3896118,8.93839591 43.9575656,11.5229439 40.9681912,11.5229439 L40.5266027,11.5229439 L40.5266027,20.319049 C48.682657,20.7141673 56.3186392,24.2993735 62.1672755,30.5145481 C68.376369,37.1129835 71.7957958,45.8514086 71.7957958,55.1200076 L71.7957958,63.4275407 C71.7957958,64.3154515 71.1183782,65.0353466 70.2828587,65.0353466 L55.2378348,65.0353466 L55.2378348,68.4768551 L71.8727664,68.4768551 C74.8619517,68.4770561 77.2941871,71.0616041 77.2941871,74.2384276 Z M39.0134765,8.3073321 L40.968002,8.3073321 C42.2887961,8.3073321 43.3635487,7.16538796 43.3635487,5.76157243 C43.3635487,4.35775691 42.2887961,3.2156118 40.968002,3.2156118 L37.0593293,3.2156118 C35.7385353,3.2156118 34.6637826,4.35775691 34.6637826,5.76137146 C34.6637826,7.16518698 35.7385353,8.3073321 37.0593293,8.3073321 L39.0134765,8.3073321 Z M53.7248978,61.8199358 L68.7699217,61.8199358 L68.7699217,55.1202086 C68.7699217,37.6837546 55.4212785,23.4980832 39.0136657,23.4980832 C22.6060529,23.4980832 9.2575987,37.6837546 9.2575987,55.1202086 L9.2575987,61.8199358 L53.7248978,61.8199358 Z M25.8153705,65.0355476 L25.8153705,68.4770561 L52.2117717,68.4770561 L52.2117717,65.0355476 L25.8153705,65.0355476 Z M74.2683131,74.2386285 C74.2683131,72.834813 73.1935604,71.6926679 71.8727664,71.6926679 L6.15456489,71.6926679 C4.83377087,71.6926679 3.75920736,72.834813 3.75920736,74.2384276 C3.75920736,75.6422431 4.83377087,76.7843882 6.15456489,76.7843882 L71.8727664,76.7843882 C73.1935604,76.7843882 74.2683131,75.6422431 74.2683131,74.2386285 Z" id="XMLID_975_"></path>
                </g>
                <text id="Don’t-Be-Late" font-family="TsukuBRdGothic-Regular, Tsukushi B Round Gothic" font-size="34" font-weight="normal" fill="#000000">
                    <tspan x="90.8717949" y="59">Don’t Be Late</tspan>
                </text>
            </g>
        </g>
    </g>
</svg>