<?xml version="1.0" encoding="UTF-8"?>
<svg width="26px" height="22px" viewBox="0 0 26 22" version="1.1" xmlns="http://www.w3.org/2000/svg" xmlns:xlink="http://www.w3.org/1999/xlink">
    <title>Shape-path</title>
    <g id="Page-1" stroke="none" stroke-width="1" fill="none" fill-rule="evenodd">
        <g id="iPhone-12-Pro-Max" transform="translate(-200.000000, -313.000000)" fill="#3F3D56" fill-rule="nonzero">
            <path d="M221.718664,325.559891 C221.527816,325.559891 220.893587,325.554287 220.708362,325.543067 L217.065709,325.447644 C217.027271,325.446699 216.991115,325.465838 216.970286,325.498156 L211.503499,333.670288 C211.338926,333.92958 211.052887,334.086369 210.745777,334.085632 L209.415559,334.085632 C209.101243,334.085632 208.994597,333.771311 209.106863,333.479462 L211.918838,325.458861 C211.931944,325.425071 211.927779,325.387016 211.907675,325.35686 C211.88757,325.326705 211.854044,325.308224 211.817812,325.307327 L204.987119,325.155769 C204.843205,325.152576 204.706102,325.216973 204.616669,325.329771 L202.50067,327.894786 C202.329097,328.11031 202.068936,328.236261 201.79346,328.237166 L200.856136,328.237166 C200.783267,328.237923 200.714603,328.203115 200.67214,328.143893 C200.629677,328.084671 200.618745,328.008468 200.642846,327.939697 L201.759792,324.083754 C201.843973,323.869071 201.843973,323.630515 201.759792,323.415832 L200.642846,319.559889 C200.618745,319.491118 200.629677,319.414915 200.67214,319.355693 C200.714603,319.296471 200.783267,319.261663 200.856136,319.26242 L201.799093,319.26242 C202.07514,319.260799 202.33634,319.387257 202.506281,319.6048 L204.582998,322.130524 C204.671658,322.24428 204.80927,322.308913 204.953429,322.304506 L211.823412,322.203483 C211.859936,322.203306 211.89398,322.184981 211.914243,322.154593 C211.934505,322.124206 211.938333,322.085733 211.924455,322.051948 L209.112463,314.036968 C209.000217,313.745106 209.10686,313.430784 209.421188,313.430784 L210.751407,313.430784 C211.058167,313.431388 211.343594,313.587847 211.50911,313.846122 L216.970286,322.023894 C216.990179,322.057215 217.026968,322.07669 217.065709,322.074405 L220.708362,321.978983 C220.887983,321.967759 221.527816,321.962159 221.718664,321.962159 C224.21072,321.962159 225.776653,322.770392 225.776653,323.763828 C225.776653,324.757264 224.205097,325.559891 221.718664,325.559891 Z" id="Shape-path"></path>
        </g>
    </g>
</svg>