<?xml version="1.0" encoding="UTF-8"?>
<svg width="24px" height="22px" viewBox="0 0 24 22" version="1.1" xmlns="http://www.w3.org/2000/svg" xmlns:xlink="http://www.w3.org/1999/xlink">
    <title>hotel</title>
    <g id="Page-1" stroke="none" stroke-width="1" fill="none" fill-rule="evenodd">
        <g id="iPhone-12-Pro-Max" transform="translate(-123.000000, -184.000000)" fill="#3F3D56" fill-rule="nonzero">
            <g id="hotel" transform="translate(123.118541, 184.262405)">
                <path d="M2.58185859,9.86718136 L3.60337507,4.43406273 C3.86717927,2.9579098 4.55192609,1.79607262 5.83725001,1.79607262 L7.76801345,1.79607262 L7.88027973,1.35266637 C8.0826032,0.556881024 8.79912479,-0.000155652988 9.62022714,-5.32907052e-15 L12.8194935,-5.32907052e-15 C13.6388216,-0.000368033088 14.354562,0.55376029 14.559428,1.34706262 L14.6716748,1.79607262 L16.6136814,1.79607262 C17.8709412,1.79607262 18.5388605,2.93546238 18.8531763,4.42844277 L18.8531763,4.43406273 L19.880303,9.87280457 C19.8969279,9.95563024 19.8655262,10.0407627 19.7990993,10.0929542 C19.7326725,10.1451456 19.6425274,10.1555123 19.5659873,10.1197619 L18.1403459,9.46307268 C18.0720614,9.434799 18.0232386,9.37324284 18.0112554,9.3003143 L17.1019955,4.49580448 C16.9336171,3.87841613 16.6978803,3.59776826 16.1983393,3.59776826 L6.25819912,3.59776826 C5.76428131,3.59776826 5.4948766,3.89524035 5.3545624,4.49580448 L4.44528625,9.30029484 C4.43125884,9.37230615 4.38311564,9.43301123 4.31619251,9.46307268 L2.89617434,10.1141484 C2.81961988,10.1487891 2.73015,10.1379532 2.66407837,10.0860388 C2.59800674,10.0341244 2.56631212,9.94975782 2.58185859,9.86718136 L2.58185859,9.86718136 Z" id="Path"></path>
                <path d="M22.3779562,13.3639198 L19.307803,20.9916061 C17.7642916,20.9916061 16.1253803,19.75681 16.1253803,19.75681 C15.1150778,20.2675682 13.1450265,20.7165782 11.6744871,20.8007803 C11.5173292,20.8063809 11.3657621,20.8120008 11.2254608,20.8120008 C11.0851596,20.8120008 10.933599,20.8120008 10.7764346,20.8007803 C9.30590165,20.7165782 7.33585036,20.2619515 6.32554138,19.75681 C6.32554138,19.75681 4.68663006,20.9916061 3.14311866,20.9916061 L0.072965463,13.3639198 C0.0256309891,13.2441438 0.000891873125,13.1166362 -8.8817842e-15,12.9878494 C-8.8817842e-15,12.5923515 0.230183343,12.2330154 0.589320966,12.067369 L11.0346221,7.26848235 C11.1536922,7.21236713 11.291603,7.21236713 11.4106731,7.26848235 L21.8615748,12.067369 C22.2207124,12.2330154 22.4508957,12.5923515 22.4508957,12.9878494 C22.4500121,13.1166346 22.4252818,13.2441421 22.3779562,13.3639198 L22.3779562,13.3639198 Z" id="Path"></path>
            </g>
        </g>
    </g>
</svg>